:SAMPLES-PER-SECOND 30
:FULLY-SPECIFIED
:DEGREES
549
root  2.64628 37.1473 -56.1225 -165.931 13.8366 178.591
RightUpLeg  -23.492 -5.674 -3.38413
RightLeg  64.5736 14.3123 -4.55645
RightFoot  -4.16588 -0.552483 7.05745
RightToes  -5.82073e-011 -3.18055e-015 -2.98177e-016
Spine  21.0555 4.06868 3.86232
Spine1  -13.8885 4.41047 -4.75645
HEad  -29.4068 0.837067 4.35563
LeftShoulder1  -3.88251e-019 9.70628e-020 -3.87848e-018
LeftArm  0.810648 23.514 -71.699
LeftForeArm  -19.2214 -32.3886 6.21102
LeftHand  -1.32321 -6.16261 13.9696
RightShoulder  5.63949 9.96454 26.7356
RightArm  25.1234 -32.063 52.7205
RightForeArm  -32.1748 60.8285 -49.6215
RightHand  -3.05587 8.79579 -24.5671
LeftUpLeg  -39.8188 2.51177 -9.70476
LeftLeg  36.5025 11.2422 20.3007
LeftFoot  -10.708 -0.0188031 -0.48207
LeftToes  -2.27483e-011 -5.53417e-011 9.36564e-012
550
root  2.74872 37.8919 -56.3633 -166.574 16.4795 179.652
RightUpLeg  -27.3718 -7.19804 -1.33779
RightLeg  61.5066 13.4293 -5.89793
RightFoot  -7.48941 -0.343692 7.18605
RightToes  -5.82073e-011 -3.18055e-015 -2.98177e-016
Spine  20.3424 3.85647 3.89105
Spine1  -12.411 4.33329 -3.79269
HEad  -27.5595 2.609 3.3072
LeftShoulder1  -3.88251e-019 9.70628e-020 -3.87848e-018
LeftArm  0.954401 24.4237 -70.6928
LeftForeArm  -18.3272 -33.3603 6.5232
LeftHand  -1.3906 -6.57437 14.156
RightShoulder  5.66578 9.96149 26.8867
RightArm  27.8114 -33.5768 50.9458
RightForeArm  -33.7299 61.7004 -52.0633
RightHand  -2.9208 8.32923 -24.2845
LeftUpLeg  -35.452 3.98998 -8.48795
LeftLeg  31.5027 13.9545 18.6679
LeftFoot  -8.92207 -0.012344 -0.325685
LeftToes  -2.27483e-011 -5.53417e-011 9.36564e-012
551
root  2.87816 38.4651 -56.6105 -167.447 18.9583 -179.455
RightUpLeg  -29.8688 -8.67487 0.941395
RightLeg  55.1843 11.419 -8.03135
RightFoot  -8.40746 -0.263149 6.78463
RightToes  -5.82073e-011 -3.18055e-015 -2.98177e-016
Spine  19.6428 3.56132 3.46544
Spine1  -10.7297 4.03686 -2.3367
HEad  -26.4035 5.5171 2.12248
LeftShoulder1  -3.88251e-019 9.70628e-020 -3.87848e-018
LeftArm  1.09303 25.7518 -69.6962
LeftForeArm  -17.8904 -33.8731 6.68959
LeftHand  -1.44339 -6.83931 14.3612
RightShoulder  5.67376 9.93932 26.9745
RightArm  31.0709 -34.6611 48.4913
RightForeArm  -31.9959 61.6606 -52.1702
RightHand  -2.90635 8.48653 -23.9073
LeftUpLeg  -31.2652 5.59756 -7.44992
LeftLeg  27.2771 16.1287 17.0468
LeftFoot  -7.60907 -0.0112131 -0.193139
LeftToes  -2.27483e-011 -5.53417e-011 9.36564e-012
552
root  3.06324 38.869 -56.87 -168.756 20.9537 -179.124
RightUpLeg  -30.3888 -9.47048 2.56243
RightLeg  46.3134 9.51389 -8.30917
RightFoot  -9.33704 -0.230512 7.52959
RightToes  -5.82073e-011 -3.18055e-015 -2.98177e-016
Spine  18.8862 3.13351 2.12791
Spine1  -8.74964 3.39713 -0.367965
HEad  -25.2625 8.40446 0.779367
LeftShoulder1  -3.88251e-019 9.70628e-020 -3.87848e-018
LeftArm  1.48078 27.1022 -68.856
LeftForeArm  -17.9183 -33.5935 6.60815
LeftHand  -1.43979 -6.86017 14.3015
RightShoulder  5.76241 9.93308 27.4741
RightArm  34.8428 -34.9556 45.1541
RightForeArm  -28.099 60.6955 -49.7498
RightHand  -2.91237 8.71571 -23.5807
LeftUpLeg  -27.1544 6.853 -6.78609
LeftLeg  23.8094 17.7486 15.5377
LeftFoot  -6.67408 0.00237677 -0.341757
LeftToes  -2.27483e-011 -5.53417e-011 9.36564e-012
553
root  3.32909 39.1491 -57.1719 -170.152 22.3078 -179.242
RightUpLeg  -29.3014 -9.06232 3.31889
RightLeg  35.273 9.56251 -5.90682
RightFoot  -9.48673 -0.242708 8.16338
RightToes  -5.82073e-011 -3.18055e-015 -2.98177e-016
Spine  17.9555 2.53613 0.450613
Spine1  -7.05046 2.47396 1.43688
HEad  -24.415 10.816 -0.0398551
LeftShoulder1  -3.88251e-019 9.70628e-020 -3.87848e-018
LeftArm  2.42033 28.3762 -68.2698
LeftForeArm  -17.8134 -32.3023 6.27247
LeftHand  -1.38997 -6.79553 13.895
RightShoulder  6.05808 10.0293 28.8988
RightArm  38.8411 -34.4651 40.7782
RightForeArm  -22.8789 58.6293 -45.0562
RightHand  -2.77767 8.44865 -22.9395
LeftUpLeg  -23.3368 7.40722 -6.32551
LeftLeg  20.8598 19.1208 14.1543
LeftFoot  -5.85839 0.029182 -0.631361
LeftToes  -2.27483e-011 -5.53417e-011 9.36564e-012
554
root  3.72054 39.3109 -57.5259 -171.649 22.4833 179.95
RightUpLeg  -26.8932 -7.72094 2.83448
RightLeg  23.3811 11.5361 -2.91857
RightFoot  -6.78734 -0.3649 6.90717
RightToes  -5.82073e-011 -3.18055e-015 -2.98177e-016
Spine  16.36 1.73548 -1.93149
Spine1  -5.16358 1.15855 3.54848
HEad  -23.8172 12.971 -0.25011
LeftShoulder1  -3.88251e-019 9.70628e-020 -3.87848e-018
LeftArm  3.35181 29.3799 -68.1812
LeftForeArm  -16.6193 -29.94 5.57654
LeftHand  -1.29817 -6.76201 13.0398
RightShoulder  6.3352 10.1044 30.2406
RightArm  41.3606 -33.9131 37.1008
RightForeArm  -15.5956 54.751 -38.1912
RightHand  -2.5972 8.11736 -22.005
LeftUpLeg  -19.9195 6.61017 -6.11183
LeftLeg  18.5971 20.5594 12.8244
LeftFoot  -5.21158 0.044714 -0.807567
LeftToes  -2.27483e-011 -5.53417e-011 9.36564e-012
